<svg xmlns="http://www.w3.org/2000/svg" width="1200" height="630" viewBox="0 0 1200 630">
  <!-- Background -->
  <rect width="1200" height="630" fill="#1F2937" />
  
  <!-- Gradient background pattern -->
  <g opacity="0.1">
    <!-- Grid lines -->
    <g>
      <!-- Horizontal lines -->
      <line x1="0" y1="100" x2="1200" y2="100" stroke="#8B5CF6" stroke-width="1" stroke-dasharray="5,5" />
      <line x1="0" y1="200" x2="1200" y2="200" stroke="#8B5CF6" stroke-width="1" stroke-dasharray="5,5" />
      <line x1="0" y1="300" x2="1200" y2="300" stroke="#8B5CF6" stroke-width="1" stroke-dasharray="5,5" />
      <line x1="0" y1="400" x2="1200" y2="400" stroke="#8B5CF6" stroke-width="1" stroke-dasharray="5,5" />
      <line x1="0" y1="500" x2="1200" y2="500" stroke="#8B5CF6" stroke-width="1" stroke-dasharray="5,5" />
      
      <!-- Vertical lines -->
      <line x1="200" y1="0" x2="200" y2="630" stroke="#D946EF" stroke-width="1" stroke-dasharray="5,5" />
      <line x1="400" y1="0" x2="400" y2="630" stroke="#D946EF" stroke-width="1" stroke-dasharray="5,5" />
      <line x1="600" y1="0" x2="600" y2="630" stroke="#D946EF" stroke-width="1" stroke-dasharray="5,5" />
      <line x1="800" y1="0" x2="800" y2="630" stroke="#D946EF" stroke-width="1" stroke-dasharray="5,5" />
      <line x1="1000" y1="0" x2="1000" y2="630" stroke="#D946EF" stroke-width="1" stroke-dasharray="5,5" />
    </g>
  </g>
  
  <!-- Gradient definitions -->
  <defs>
    <linearGradient id="gradientLine" x1="0%" y1="0%" x2="100%" y2="100%">
      <stop offset="0%" stop-color="#8B5CF6" />
      <stop offset="100%" stop-color="#D946EF" />
    </linearGradient>
    <linearGradient id="gradientFill" x1="0%" y1="0%" x2="100%" y2="100%">
      <stop offset="0%" stop-color="#8B5CF6" />
      <stop offset="100%" stop-color="#D946EF" />
    </linearGradient>
    <linearGradient id="flameFill" x1="0%" y1="0%" x2="100%" y2="100%">
      <stop offset="0%" stop-color="#D946EF" />
      <stop offset="100%" stop-color="#EC4899" />
    </linearGradient>
    <linearGradient id="textGradient" x1="0%" y1="0%" x2="100%" y2="0%">
      <stop offset="0%" stop-color="#8B5CF6" />
      <stop offset="100%" stop-color="#D946EF" />
    </linearGradient>
  </defs>
  
  <!-- Logo Container -->
  <g transform="translate(240, 180) scale(2.5)">
    <!-- Code brackets -->
    <path 
      d="M30,20 L10,50 L30,80" 
      fill="none" 
      stroke="url(#gradientLine)" 
      stroke-width="8" 
      stroke-linecap="round" 
      stroke-linejoin="round"
    />
    <path 
      d="M70,20 L90,50 L70,80" 
      fill="none" 
      stroke="url(#gradientLine)" 
      stroke-width="8" 
      stroke-linecap="round" 
      stroke-linejoin="round"
    />
    
    <!-- Rocket -->
    <path 
      d="M50,20 L60,40 L50,70 L40,40 Z" 
      fill="url(#gradientFill)" 
      stroke="white" 
      stroke-width="1.5"
    />
    
    <!-- Rocket flames -->
    <path 
      d="M45,70 L50,85 L55,70" 
      fill="url(#flameFill)"
    />
  </g>
  
  <!-- Brand title -->
  <text x="600" y="500" font-family="Arial, sans-serif" font-size="72" font-weight="bold" fill="white" text-anchor="middle">Axentra</text>
  
  <!-- Tagline -->
  <text x="600" y="570" font-family="Arial, sans-serif" font-size="36" fill="#E5E7EB" text-anchor="middle">Snabb MVP-utveckling för startups</text>
</svg> 